<?xml version="1.0" encoding="UTF-8"?>
<!DOCTYPE svg PUBLIC "-//W3C//DTD SVG 1.1//EN" "http://www.w3.org/Graphics/SVG/1.1/DTD/svg11.dtd">
<!-- Creator: CorelDRAW -->
<svg xmlns="http://www.w3.org/2000/svg" xml:space="preserve" width="1094.96mm" height="173.367mm" version="1.1" style="shape-rendering:geometricPrecision; text-rendering:geometricPrecision; image-rendering:optimizeQuality; fill-rule:evenodd; clip-rule:evenodd"
viewBox="0 0 48327.62 7651.8"
 xmlns:xlink="http://www.w3.org/1999/xlink"
 xmlns:xodm="http://www.corel.com/coreldraw/odm/2003">
 <defs>
  <style type="text/css">
   <![CDATA[
    .fil0 {fill:#201E1E}
    .fil1 {fill:#201E1E;fill-rule:nonzero}
   ]]>
  </style>
 </defs>
 <g id="Capa_x0020_1">
  <metadata id="CorelCorpID_0Corel-Layer"/>
  <path class="fil0" d="M10949.59 7651.8l0 0zm-0.06 -0.04c-6.1,-4.43 -12.21,-8.86 -18.33,-13.27 -1418.18,-1024.11 -3160.03,-1627.8 -5043.01,-1627.8 -1722.55,0 -3326.98,505.19 -4673.73,1375.12 1397.69,-654.21 2957.11,-1020.4 4602.3,-1020.4 1848.65,0 3589.25,461.94 5113.41,1275.99 6.45,3.45 12.91,6.9 19.36,10.36z"/>
  <path class="fil0" d="M6064.02 3340.53l-114.65 -51.01 -101.73 50.87 0 -3326.87 -743.81 649.15 2.8 5152.93c253.9,-22.49 521.81,-34.06 781.57,-34.06 310.67,0 617.47,16.53 919.64,48.58l0 -5167.45 -743.82 -662.67 0 3340.53zm-676.19 -2312.72l0 2785.92c70.12,-46.96 145.77,-87.96 216.38,-135.24l0 -2799.43 -216.38 148.76zm919.62 2650.67l229.91 135.24 3.59 -2785.8 -233.5 -148.88 0 2799.43z"/>
  <path class="fil0" d="M3278.11 2123.25l0 4060.48c252.13,-79.98 509.29,-148.65 770.86,-205.49l0 -4463.56 -770.86 608.57zm115.35 2964.33l-0.01 -288.67 527.73 -200.15 0 313.31 -527.72 175.5zm0 -450.37l-0.01 -288.66 527.73 -242.15 0 313.3 -527.72 217.5zm0 -450.37l-0.01 -288.66 527.73 -284.15 0 313.3 -527.72 259.51zm0 -450.37l-0.01 -288.66 527.73 -326.15 0 313.3 -527.72 301.5zm0 -450.36l-0.01 -288.66 527.73 -368.15 0 313.3 -527.72 343.51zm0 -450.37l-0.01 -288.66 527.73 -410.14 0 313.31 -527.72 385.5z"/>
  <path class="fil0" d="M7849.17 6005.57l0 -3327.85 -933.15 0 0 3164.51c316.63,37.62 628.01,92.36 933.15,163.34zm-316.44 -1362.03l160.88 0 0 160.88 -160.88 0 0 -160.88zm0 -283.51l160.88 0 0 160.88 -160.88 0 0 -160.88zm0 -283.52l160.88 0 0 160.88 -160.88 0 0 -160.88zm0 -283.51l160.88 0 0 160.88 -160.88 0 0 -160.88zm0 -283.51l160.88 0 0 160.88 -160.88 0 0 -160.88zm0 -283.52l160.88 0 0 160.88 -160.88 0 0 -160.88zm-433.26 1417.56l160.88 0 0 160.88 -160.88 0 0 -160.88zm0 -283.51l160.88 0 0 160.88 -160.88 0 0 -160.88zm0 -283.52l160.88 0 0 160.88 -160.88 0 0 -160.88zm0 -283.51l160.88 0 0 160.88 -160.88 0 0 -160.88zm0 -283.51l160.88 0 0 160.88 -160.88 0 0 -160.88zm0 -283.52l160.88 0 0 160.88 -160.88 0 0 -160.88zm433.26 -283.51l160.88 0 0 160.88 -160.88 0 0 -160.88zm-433.26 0l160.88 0 0 160.88 -160.88 0 0 -160.88z"/>
  <path class="fil0" d="M8633.55 6227.96l0 -3901.87 -632.42 -662.67 0 4378.21c215.2,54.14 423.98,116.36 632.41,186.33zm-144.34 -932.97l0 -288.66 -339.53 -188.88 0 308.32 339.52 169.22zm0 -450.36l0 -288.67 -339.53 -223.05 0 308.32 339.52 203.39zm0 -450.37l0 -288.66 -339.53 -257.22 0 308.32 339.52 237.56zm0 -450.36l0 -288.66 -339.53 -291.4 0 308.32 339.52 271.74zm0 -450.37l0 -288.66 -339.53 -325.57 0 308.32 339.52 305.91zm0 -450.36l0 -288.66 -339.53 -359.74 0 308.32 339.52 340.08z"/>
  <path class="fil0" d="M4224.77 3746.11c67.95,15.83 710.15,319.52 770.86,324.58l0 -2096.2 -770.86 -432.76 0 2204.39z"/>
  <path class="fil0" d="M8715.64 4218.81l0 2037.55c225.3,78.57 458.9,170.23 675.25,266.52l0 -2722.69 -675.25 418.61z"/>
  <path class="fil0" d="M1966.29 3624.39l0 3098.69c146.41,-74.89 295.19,-145.77 446.29,-212.38l0 -3346.12 -446.29 459.81zm140.35 1885.79l160.88 -88.06 0 174.67 -160.88 82.69 0 -169.31zm0 -298.37l160.88 -97.5 0 174.67 -160.88 92.14 0 -169.31zm0 -298.36l160.88 -106.96 0 174.67 -160.88 101.59 0 -169.31zm0 -298.36l160.88 -116.41 0 174.67 -160.88 111.04 0 -169.31zm0 -298.37l160.88 -125.86 0 174.67 -160.88 120.5 0 -169.31zm0 -298.37l160.88 -135.3 0 174.67 -160.88 129.94 0 -169.31z"/>
  <path class="fil0" d="M4995.64 5827.24l0 -1540.18 -770.86 -351.62 0 2006.48c253.16,-49.48 510.29,-87.88 770.86,-114.68z"/>
  <path class="fil0" d="M9931.99 6786.84l3.61 -2539.28 -423 -460.88 0 2791.41c141.94,65.85 281.75,135.53 419.39,208.74zm-279.91 -869.6l160.88 91.28 0 168.76 -160.88 -82.69 0 -177.35zm0 -336.9l160.88 107.59 0 168.76 -160.88 -99 0 -177.35zm0 -336.9l160.88 123.91 0 168.76 -160.88 -115.32 0 -177.35zm0 -336.9l160.88 140.22 0 168.76 -160.88 -131.63 0 -177.35zm0 -336.9l160.88 156.54 0 168.76 -160.88 -147.95 0 -177.35zm0 -336.9l160.88 172.86 0 168.76 -160.88 -164.26 0 -177.35z"/>
  <path class="fil0" d="M2520.77 4909.16l662.67 284.01 0 -1582.29 -662.67 -432.76 0 1731.05zm411.29 -158.93l106.38 50.64 0 135.05 -106.38 -47.51 0 -138.18zm0 -243.5l106.38 56.15 0 135.05 -106.38 -53.03 0 -138.17zm0 -243.5l106.38 61.66 0 135.04 -106.38 -58.53 0 -138.17zm-225.33 379.74l116.7 55.55 0 141.37 -116.7 -52.13 0 -144.79zm0 -255.17l116.7 61.59 0 141.37 -116.7 -58.16 0 -144.8zm0 -255.17l116.7 67.64 0 141.37 -116.7 -64.21 0 -144.8zm225.33 -112.9l106.38 67.17 0 135.05 -106.38 -64.04 0 -138.17zm-225.33 -142.27l116.7 73.68 0 141.37 -116.7 -70.25 0 -144.8z"/>
  <path class="fil0" d="M3183.44 6214.34l0 -845.37 -662.67 -270.48 0 1362.62c212.07,-89.6 442.35,-174.05 662.67,-246.77z"/>
  <polygon class="fil0" points="7406.65,2092.77 7406.65,2556.01 7849.17,2556.01 7849.17,1690.48 "/>
  <g id="_2624682570208">
   <path class="fil1" d="M1237.53 1941.46c143.51,-63.16 286.86,-112.71 426.2,-148.94 -187.55,-114.3 -426.03,-138.23 -642.28,-43.05 -240.22,105.74 -390.67,330.91 -412.5,575.06 172.88,-143.82 386.22,-276.41 628.58,-383.07z"/>
   <path class="fil1" d="M1054.33 1576.92c221.61,37.18 432.33,90.55 627.78,156.71 -134.86,-284.39 -401.74,-500.62 -735.7,-556.62 -370.95,-62.23 -728.28,89.25 -946.42,364.62 320.22,-36.36 680.1,-27.47 1054.33,35.3z"/>
   <path class="fil1" d="M1249.11 1132.8c165.4,152.1 312.84,311.82 440.5,473.92 42.23,-311.9 -63.4,-638.72 -312.66,-867.94 -276.87,-254.6 -658.95,-322.7 -992.01,-211.01 288.15,144.3 584.84,348.17 864.18,605.03z"/>
   <path class="fil1" d="M2406.11 761.76c155.87,-161.86 318.95,-305.59 483.95,-429.48 -310.85,-49.4 -640.04,48.67 -874.91,292.59 -260.92,270.93 -337.79,651.35 -233.8,986.91 150.91,-284.76 361.53,-576.69 624.77,-850.02z"/>
   <path class="fil1" d="M2191.22 1941.46c-143.49,-63.16 -286.86,-112.71 -426.2,-148.94 187.56,-114.3 426.02,-138.23 642.28,-43.05 240.22,105.74 390.67,330.91 412.5,575.06 -172.88,-143.82 -386.22,-276.41 -628.59,-383.07z"/>
   <path class="fil1" d="M2374.43 1576.92c-221.63,37.18 -432.34,90.55 -627.78,156.71 134.86,-284.39 401.74,-500.62 735.69,-556.62 370.95,-62.23 728.27,89.25 946.42,364.62 -320.21,-36.36 -680.1,-27.47 -1054.32,35.3z"/>
   <path class="fil1" d="M1749.52 1940.45l-24.45 1107.31c-29.71,1399.3 14.71,2570.95 184.16,3974.87l-287.39 135.53c-125.39,-1534.11 -177.31,-2591.93 -62.96,-4118.38l83.59 -1103.32 107.05 3.99z"/>
  </g>
  <g id="_2624682574720">
   <path class="fil1" d="M9953.17 2719.41c143.51,-63.16 286.86,-112.71 426.2,-148.94 -187.55,-114.3 -426.03,-138.23 -642.28,-43.05 -240.22,105.74 -390.67,330.91 -412.5,575.06 172.88,-143.82 386.23,-276.41 628.58,-383.07z"/>
   <path class="fil1" d="M9769.98 2354.87c221.61,37.18 432.33,90.55 627.78,156.71 -134.86,-284.39 -401.74,-500.62 -735.7,-556.62 -370.95,-62.22 -728.28,89.25 -946.42,364.62 320.23,-36.36 680.1,-27.47 1054.34,35.3z"/>
   <path class="fil1" d="M9964.75 1910.75c165.4,152.1 312.84,311.82 440.5,473.92 42.23,-311.9 -63.4,-638.72 -312.66,-867.94 -276.86,-254.6 -658.95,-322.7 -992.01,-211.01 288.15,144.3 584.84,348.17 864.18,605.03z"/>
   <path class="fil1" d="M11121.75 1539.7c155.87,-161.86 318.95,-305.59 483.95,-429.47 -310.85,-49.4 -640.03,48.66 -874.91,292.59 -260.93,270.93 -337.79,651.35 -233.81,986.91 150.91,-284.76 361.53,-576.69 624.77,-850.02z"/>
   <path class="fil1" d="M10906.86 2719.41c-143.49,-63.16 -286.85,-112.71 -426.2,-148.94 187.56,-114.3 426.02,-138.23 642.28,-43.05 240.22,105.74 390.67,330.91 412.5,575.06 -172.88,-143.82 -386.22,-276.41 -628.59,-383.07z"/>
   <path class="fil1" d="M11090.07 2354.87c-221.62,37.18 -432.34,90.55 -627.78,156.71 134.86,-284.39 401.74,-500.62 735.69,-556.62 370.95,-62.22 728.27,89.25 946.42,364.62 -320.21,-36.36 -680.1,-27.47 -1054.32,35.3z"/>
   <path class="fil1" d="M10465.17 2718.4l-24.46 1107.31c-27.06,1274.52 -29.14,2298.9 125.41,3579.42l-337.14 -155.15c-101.28,-1238.82 -46.5,-2203.69 45.54,-3432.25l83.59 -1103.32 107.06 3.99z"/>
  </g>
  <path class="fil1" d="M23915.67 5760.66l0 -131.54 -1361.63 0 0 -2064.26 -263.07 0 0 2195.79 1624.7 0zm1099.88 39c183.75,0 348.34,-35.03 489.79,-103.12 141.45,-67.42 251.84,-164.59 331.16,-290.17 79.32,-124.27 118.32,-271 118.32,-441.54l0 -1405.92 -133.52 0 0 1405.92c0,114.35 -21.15,212.84 -64.11,300.09 -44.29,87.25 -100.47,160.62 -172.52,220.77 -71.39,60.15 -150.7,104.44 -237.95,135.5 -87.25,31.06 -174.5,46.27 -261.09,46.27 -141.45,0 -267.7,-27.1 -374.11,-81.3 -106.42,-54.2 -189.7,-133.52 -249.85,-237.96 -60.15,-104.44 -89.24,-232.67 -89.24,-383.37l0 -1405.92 -263.07 0 0 1405.92c0,263.07 81.3,468.64 245.88,614.05 164.59,146.74 383.37,220.77 660.33,220.77zm2163.4 -988.17l-72.05 -100.47 -900.26 1049.65 158.64 0 813.67 -949.17zm171.85 -385.36l74.03 99.15 824.91 -960.41 -158.64 0 -740.3 861.26zm963.05 1334.53l-1735.09 -2195.79 -306.03 0 1735.09 2195.79 306.03 0zm1099.22 39c183.75,0 348.34,-35.03 489.79,-103.12 141.45,-67.42 251.84,-164.59 331.16,-290.17 79.32,-124.27 118.32,-271 118.32,-441.54l0 -1405.92 -133.52 0 0 1405.92c0,114.35 -21.15,212.84 -64.11,300.09 -44.29,87.25 -100.47,160.62 -172.52,220.77 -71.39,60.15 -150.7,104.44 -237.95,135.5 -87.25,31.06 -174.5,46.27 -261.09,46.27 -141.45,0 -267.7,-27.1 -374.11,-81.3 -106.42,-54.2 -189.7,-133.52 -249.85,-237.96 -60.15,-104.44 -89.24,-232.67 -89.24,-383.37l0 -1405.92 -263.07 0 0 1405.92c0,263.07 81.3,468.64 245.88,614.05 164.59,146.74 383.37,220.77 660.33,220.77zm1210.26 -2234.79l106.42 131.54 741.63 0c129.55,0 239.94,40.32 329.17,122.28 89.24,81.3 133.52,189.7 133.52,327.18 0,137.49 -44.28,247.87 -133.52,329.17 -89.23,81.3 -199.62,121.62 -329.17,121.62l-183.75 0 729.73 1163.99 298.1 0 -646.44 -1051.63c162.6,-33.05 294.14,-100.47 396.59,-199.62 103.12,-98.49 153.35,-220.77 153.35,-363.54 0,-114.35 -33.05,-215.48 -101.13,-302.07 -67.42,-87.25 -156.65,-155.33 -271,-205.57 -114.35,-48.25 -237.95,-73.37 -375.44,-73.37l-848.04 0zm2985.67 1041.71l76.01 118.31 832.18 -1160.03 -156.65 0 -751.54 1041.71zm13.88 204.9l-77.34 -119.64 -824.91 -1126.98 -311.98 0 950.5 1337.84 0 857.96 263.73 0 0 -949.17z"/>
  <g id="_2624682577216">
   <polygon class="fil1" points="17165.99,5760.65 15552.71,5760.65 15552.71,3580.29 17122.02,3580.29 17122.02,3710.91 15813.94,3710.91 15813.94,4604.84 16990.75,4604.84 16990.75,4735.45 15813.94,4735.45 15813.94,5630.04 17165.99,5630.04 "/>
   <path class="fil1" d="M13382.21 5630.03l0 130.61 1084.28 0c136.51,0 261.88,-26.91 375.42,-82.7 112.89,-55.79 203.47,-130.61 271.07,-225.13 66.96,-93.85 99.77,-201.49 99.77,-318.97 0,-132.59 -42,-250.07 -124.71,-351.81 -82.7,-101.73 -192.31,-177.21 -326.86,-225.12 97.79,-43.97 174.58,-103.7 234.31,-178.52 57.77,-75.48 86.64,-163.43 86.64,-269.76 0,-112.89 -32.82,-209.37 -100.42,-288.14 -66.94,-78.76 -157.52,-138.48 -271.07,-179.18 -113.54,-40.04 -236.28,-61.04 -372.8,-61.04l-955.64 0 0 130.61 9.92 0 251.28 246.23 0 -246.23 694.44 0c86.64,0 163.43,13.13 234.31,42.01 69.57,28.87 125.37,71.54 165.41,131.27 40.69,59.06 59.73,134.55 59.73,224.47 0,90.57 -19.03,165.4 -59.73,225.12 -40.04,59.73 -95.83,101.73 -165.41,130.61 -70.88,28.88 -147.67,42.66 -234.31,42.66l-694.44 0 0 -350.4 -261.19 -257.25 0 607.65 -0.01 0 0 130.61 0.01 0 0 992.39 -0.01 0zm261.2 -992.39l823.08 0c130.61,0 240.22,43.98 328.82,134.55 88.61,90.58 132.59,209.37 132.59,361.65 0,151.61 -43.98,271.06 -132.59,361.64 -88.6,89.91 -198.21,134.55 -328.82,134.55l-823.08 0 0 -992.39zm4595.08 1161.72c181.15,0 340.64,-30.84 477.17,-94.51 136.51,-61.69 244.15,-142.42 322.92,-242.19 76.79,-98.45 115.51,-206.09 115.51,-320.95 0,-175.24 -78.75,-315.7 -238.25,-419.41 -107.64,-70.88 -276.97,-146.36 -509.98,-221.18 -109.6,-36.76 -211.34,-74.82 -305.2,-115.52 -96.49,-40.03 -175.25,-89.91 -234.98,-149.64 -59.72,-59.73 -90.57,-134.55 -90.57,-227.09 0,-95.83 52.51,-178.53 154.24,-246.13 101.73,-66.96 238.25,-99.77 411.52,-99.77 93.85,0 180.5,13.13 257.28,40.04 75.49,28.88 140.46,59.73 194.28,94.51 51.85,34.79 92.55,64.98 121.42,93.86l42.01 40.7 98.45 -88.61c-36.75,-40.03 -88.6,-86.63 -158.18,-134.55 -68.92,-47.91 -151.61,-88.6 -248.1,-124.7 -95.83,-34.79 -199.53,-52.51 -313.07,-52.51 -244.16,0 -442.38,54.48 -597.93,160.15 -155.56,107.64 -233,246.12 -233,413.49 0,174.6 80.73,315.05 240.87,420.71 109.61,72.86 280.27,148.33 513.26,225.13 109.61,36.76 211.35,72.85 305.86,113.55 93.86,40.04 170.65,89.91 230.38,147.68 59.73,57.75 88.6,131.27 88.6,219.22 0,78.76 -22.97,150.3 -70.88,215.28 -48.56,67.6 -117.48,119.45 -211.99,160.14 -93.86,40.04 -213.32,61.04 -353.77,61.04 -303.88,-3.28 -534.26,-97.79 -692.44,-280.26l-95.83 87.95c40.69,48.57 95.83,96.49 165.39,144.4 66.96,49.88 151.62,92.55 254.01,126.67 101.73,34.79 221.18,52.5 360.98,52.5zm2115.39 -38.72l0 -2049.75 784.32 0 0 -130.61 -1830.53 0 0 130.61 784.33 0 0 2049.75 261.88 0z"/>
  </g>
  <path class="fil1" d="M36532.34 5821.14c141.45,0 274.97,-25.12 401.22,-78 125.59,-50.23 239.94,-121.62 340.41,-212.84l-133.52 -133.52c-154.67,195.65 -358.26,292.16 -608.11,292.16 -164.59,0 -309.34,-44.29 -435.59,-131.54 -125.59,-87.25 -222.75,-204.9 -292.16,-358.26 -72.04,-152.69 -106.42,-325.2 -106.42,-518.87 0,-195.65 34.37,-368.16 106.42,-520.86 71.39,-151.37 168.55,-271 294.14,-358.25 126.25,-87.25 269.02,-131.54 433.61,-131.54 247.87,0 451.45,96.5 608.11,292.15l133.52 -133.52c-100.47,-91.22 -214.82,-162.6 -340.41,-214.82 -126.25,-50.24 -259.77,-76.01 -401.22,-76.01 -200.94,0 -387.34,50.89 -555.22,153.35 -170.53,102.45 -306.04,241.92 -409.15,414.44 -102.45,172.52 -154.67,364.2 -154.67,575.05 0,208.87 52.22,400.56 154.67,573.08 103.11,172.52 238.62,310 409.15,412.45 167.89,102.45 354.28,155.33 555.22,155.33zm1949.91 -130.22c-152.69,-5.29 -290.17,-48.25 -408.49,-131.54 -125.59,-87.25 -222.75,-206.89 -292.16,-360.24 -72.04,-152.69 -106.42,-325.2 -106.42,-518.87 0,-193.67 34.37,-366.18 106.42,-518.87 71.39,-153.35 168.55,-272.99 294.14,-360.24 126.25,-87.25 269.02,-129.55 433.61,-129.55 249.85,5.29 453.44,102.45 606.12,290.17 153.35,187.72 228.7,428.32 228.7,718.49 0,193.67 -35.03,366.19 -104.44,518.87 -70.06,153.35 -166.57,272.99 -292.81,360.24 -98.49,68.08 -208.87,110.39 -331.16,126.25l0 129.55c161.28,-13.88 311.99,-64.12 453.44,-149.38 168.55,-102.45 306.04,-239.93 408.49,-412.45 102.45,-172.52 153.35,-362.22 153.35,-573.08 0,-210.85 -50.9,-402.54 -153.35,-575.05 -102.45,-172.52 -239.93,-311.98 -408.49,-414.44 -170.53,-102.45 -356.27,-153.35 -559.85,-153.35 -200.94,0 -387.34,50.89 -555.22,153.35 -170.53,102.45 -306.04,241.92 -409.15,414.44 -102.45,172.52 -154.67,364.2 -154.67,575.05 0,210.86 52.22,400.56 154.67,573.08 103.11,172.52 238.62,310 409.15,412.45 160.62,99.15 336.44,149.38 528.12,155.33l0 -130.22zm3831.73 -40.32c-129.55,3.96 -218.78,48.25 -263.07,131.54l724.44 0c202.92,0 389.32,-48.25 559.19,-143.43 168.55,-94.52 304.06,-226.72 407.17,-391.3 102.45,-164.59 152.69,-352.31 152.69,-563.16 0,-210.85 -50.23,-399.24 -152.69,-563.82 -103.11,-164.59 -238.62,-296.12 -407.17,-390.64 -169.87,-95.18 -356.27,-143.43 -559.19,-143.43l-724.44 0 0 1616.77 263.07 0 0 -1485.23 461.37 0c245.88,0 446.82,89.24 602.16,265.06 154.67,176.48 232,410.47 232,701.3 0,290.17 -75.35,522.84 -226.06,697.34 -153.35,175.82 -354.95,265.05 -608.1,269.02l-461.37 0zm2963.19 40.32c-152.69,-5.29 -290.17,-48.25 -408.49,-131.54 -125.59,-87.25 -222.75,-206.89 -292.16,-360.24 -72.04,-152.69 -106.42,-325.2 -106.42,-518.87 0,-193.67 34.37,-366.18 106.42,-518.87 71.39,-153.35 168.55,-272.99 294.14,-360.24 126.25,-87.25 269.02,-129.55 433.61,-129.55 249.85,5.29 453.44,102.45 606.12,290.17 153.35,187.72 228.7,428.32 228.7,718.49 0,193.67 -35.03,366.19 -104.44,518.87 -70.06,153.35 -166.57,272.99 -292.81,360.24 -98.49,68.08 -208.87,110.39 -331.16,126.25l0 129.55c161.28,-13.88 311.99,-64.12 453.44,-149.38 168.55,-102.45 306.04,-239.93 408.49,-412.45 102.45,-172.52 153.35,-362.22 153.35,-573.08 0,-210.85 -50.9,-402.54 -153.35,-575.05 -102.45,-172.52 -239.93,-311.98 -408.49,-414.44 -170.53,-102.45 -356.27,-153.35 -559.85,-153.35 -200.94,0 -387.34,50.89 -555.22,153.35 -170.53,102.45 -306.04,241.92 -409.15,414.44 -102.45,172.52 -154.67,364.2 -154.67,575.05 0,210.86 52.22,400.56 154.67,573.08 103.11,172.52 238.62,310 409.15,412.45 160.62,99.15 336.44,149.38 528.12,155.33l0 -130.22zm2128.37 130.22c182.43,0 343.05,-31.07 480.54,-95.18 137.48,-62.13 245.88,-143.43 325.2,-243.9 77.34,-99.15 116.34,-207.55 116.34,-323.22 0,-176.48 -79.32,-317.93 -239.94,-422.37 -108.4,-71.39 -278.93,-147.4 -513.59,-222.75 -110.39,-37.01 -212.84,-75.35 -307.36,-116.33 -97.16,-40.32 -176.48,-90.55 -236.63,-150.71 -60.15,-60.15 -91.21,-135.5 -91.21,-228.7 0,-96.5 52.88,-179.79 155.33,-247.87 102.45,-67.42 239.94,-100.47 414.44,-100.47 94.52,0 181.77,13.22 259.11,40.32 76.01,29.08 141.45,60.15 195.65,95.18 52.22,35.04 93.2,65.44 122.28,94.52l42.3 40.98 99.15 -89.24c-37.01,-40.32 -89.23,-87.25 -159.3,-135.5 -69.4,-48.25 -152.69,-89.24 -249.85,-125.59 -96.5,-35.04 -200.94,-52.88 -315.29,-52.88 -245.88,0 -445.5,54.86 -602.15,161.28 -156.65,108.4 -234.65,247.87 -234.65,416.42 0,175.82 81.3,317.28 242.58,423.69 110.39,73.37 282.24,149.38 516.89,226.72 110.39,37.02 212.84,73.37 308.02,114.35 94.52,40.32 171.86,90.55 232.01,148.72 60.15,58.16 89.23,132.19 89.23,220.77 0,79.32 -23.13,151.37 -71.39,216.8 -48.91,68.08 -118.32,120.3 -213.5,161.28 -94.52,40.32 -214.82,61.47 -356.27,61.47 -306.04,-3.31 -538.04,-98.49 -697.34,-282.24l-96.5 88.57c40.98,48.91 96.5,97.16 166.57,145.42 67.42,50.23 152.69,93.2 255.8,127.57 102.45,35.03 222.75,52.88 363.54,52.88z"/>
  <polygon class="fil1" points="41755.83,5782.14 41645.44,5782.14 40030.66,3950.55 40030.66,5782.14 39898.46,5782.14 39898.46,3586.35 40119.23,3586.35 41624.29,5276.49 41624.29,3586.35 41755.83,3586.35 "/>
  <path class="fil0" d="M44497.94 6372.35l0 0zm-0.03 0.03c-3.38,2.45 -6.76,4.9 -10.15,7.34 -785.26,567.06 -1749.74,901.33 -2792.37,901.33 -953.79,0 -1842.18,-279.73 -2587.89,-761.42 773.92,362.25 1637.38,565 2548.34,565 1023.62,0 1987.41,-255.78 2831.34,-706.52 3.58,-1.91 7.15,-3.82 10.72,-5.74z"/>
 </g>
</svg>
