<svg width="591" height="614" viewBox="0 0 591 614" fill="none" xmlns="http://www.w3.org/2000/svg">
<path fill-rule="evenodd" clip-rule="evenodd" d="M532.849 410.959C532.556 410.717 532.264 410.475 531.972 410.233C462.973 355.24 378.196 322.784 286.551 322.784C202.723 322.784 124.666 349.918 59.1006 396.646C127.113 361.489 203.015 341.854 283.044 341.854C373.009 341.854 457.714 366.65 531.862 410.394C532.191 410.596 532.483 410.757 532.812 410.959H532.849Z" fill="black" style="fill:black;fill-opacity:1;"/>
<path fill-rule="evenodd" clip-rule="evenodd" d="M532.849 410.959C532.556 410.717 532.264 410.475 531.972 410.233C462.973 355.24 378.196 322.784 286.551 322.784C202.723 322.784 124.666 349.918 59.1006 396.646C127.113 361.489 203.015 341.854 283.044 341.854C373.009 341.854 457.714 366.65 531.862 410.394C532.191 410.596 532.483 410.757 532.812 410.959H532.849Z" fill="black" style="fill:black;fill-opacity:1;"/>
<path fill-rule="evenodd" clip-rule="evenodd" d="M295.099 179.374L289.51 176.632L284.542 179.374V0.685403L248.345 35.5603L248.491 312.342C260.837 311.132 273.877 310.528 286.515 310.528C301.637 310.528 316.576 311.415 331.26 313.148V35.6006L295.062 0V179.414L295.099 179.374ZM262.188 55.1548V204.814C265.585 202.274 269.274 200.097 272.708 197.557V47.1718L262.188 55.1548ZM306.933 197.517L318.11 204.774L318.293 55.1548L306.933 47.1718V197.557V197.517Z" fill="black" style="fill:black;fill-opacity:1;"/>
<path fill-rule="evenodd" clip-rule="evenodd" d="M295.099 179.374L289.51 176.632L284.542 179.374V0.685403L248.345 35.5603L248.491 312.342C260.837 311.132 273.877 310.528 286.515 310.528C301.637 310.528 316.576 311.415 331.26 313.148V35.6006L295.062 0V179.414L295.099 179.374ZM262.188 55.1548V204.814C265.585 202.274 269.274 200.097 272.708 197.557V47.1718L262.188 55.1548ZM306.933 197.517L318.11 204.774L318.293 55.1548L306.933 47.1718V197.557V197.517Z" fill="black" style="fill:black;fill-opacity:1;"/>
<path fill-rule="evenodd" clip-rule="evenodd" d="M159.51 114.018V332.138C171.783 327.824 184.275 324.155 197.023 321.091V81.3206L159.51 114.018ZM165.135 273.233V257.711L190.813 246.946V263.759L165.135 273.193V273.233ZM165.135 249.043V233.52L190.813 220.498V237.31L165.135 249.002V249.043ZM165.135 224.852V209.33L190.813 194.049V210.862L165.135 224.812V224.852ZM165.135 200.661V185.139L190.813 167.601V184.413L165.135 200.621V200.661ZM165.135 176.471V160.948L190.813 141.193V158.005L165.135 176.471ZM165.135 152.28V136.758L190.813 114.744V131.557L165.135 152.28Z" fill="black" style="fill:black;fill-opacity:1;"/>
<path fill-rule="evenodd" clip-rule="evenodd" d="M159.51 114.018V332.138C171.783 327.824 184.275 324.155 197.023 321.091V81.3206L159.51 114.018ZM165.135 273.233V257.711L190.813 246.946V263.759L165.135 273.193V273.233ZM165.135 249.043V233.52L190.813 220.498V237.31L165.135 249.002V249.043ZM165.135 224.852V209.33L190.813 194.049V210.862L165.135 224.812V224.852ZM165.135 200.661V185.139L190.813 167.601V184.413L165.135 200.621V200.661ZM165.135 176.471V160.948L190.813 141.193V158.005L165.135 176.471ZM165.135 152.28V136.758L190.813 114.744V131.557L165.135 152.28Z" fill="black" style="fill:black;fill-opacity:1;"/>
<path fill-rule="evenodd" clip-rule="evenodd" d="M381.958 322.543V143.773H336.556V313.753C351.97 315.769 367.128 318.712 381.958 322.543ZM366.544 249.366H374.361V257.994H366.544V249.366ZM366.544 234.126H374.361V242.754H366.544V234.126ZM366.544 218.886H374.361V227.514H366.544V218.886ZM366.544 203.645H374.361V212.273H366.544V203.645ZM366.544 188.405H374.361V197.033H366.544V188.405ZM366.544 173.165H374.361V181.793H366.544V173.165ZM345.468 249.325H353.285V257.953H345.468V249.325ZM345.468 234.085H353.285V242.713H345.468V234.085ZM345.468 218.845H353.285V227.473H345.468V218.845ZM345.468 203.605H353.285V212.233H345.468V203.605ZM345.468 188.365H353.285V196.993H345.468V188.365ZM345.468 173.125H353.285V181.753H345.468V173.125ZM366.544 157.885H374.361V166.513H366.544V157.885ZM345.468 157.885H353.285V166.513H345.468V157.885Z" fill="black" style="fill:black;fill-opacity:1;"/>
<path fill-rule="evenodd" clip-rule="evenodd" d="M381.958 322.543V143.773H336.556V313.753C351.97 315.769 367.128 318.712 381.958 322.543ZM366.544 249.366H374.361V257.994H366.544V249.366ZM366.544 234.126H374.361V242.754H366.544V234.126ZM366.544 218.886H374.361V227.514H366.544V218.886ZM366.544 203.645H374.361V212.273H366.544V203.645ZM366.544 188.405H374.361V197.033H366.544V188.405ZM366.544 173.165H374.361V181.793H366.544V173.165ZM345.468 249.325H353.285V257.953H345.468V249.325ZM345.468 234.085H353.285V242.713H345.468V234.085ZM345.468 218.845H353.285V227.473H345.468V218.845ZM345.468 203.605H353.285V212.233H345.468V203.605ZM345.468 188.365H353.285V196.993H345.468V188.365ZM345.468 173.125H353.285V181.753H345.468V173.125ZM366.544 157.885H374.361V166.513H366.544V157.885ZM345.468 157.885H353.285V166.513H345.468V157.885Z" fill="black" style="fill:black;fill-opacity:1;"/>
<path fill-rule="evenodd" clip-rule="evenodd" d="M420.129 334.477V124.905L389.337 89.3041V324.478C399.82 327.381 409.975 330.727 420.129 334.477ZM413.116 284.362V268.839L396.606 258.679V275.25L413.116 284.321V284.362ZM413.116 260.171V244.649L396.606 232.674V249.245L413.116 260.171ZM413.116 235.98V220.458L396.606 206.629V223.199L413.116 235.98ZM413.116 211.79V196.267L396.606 180.624V197.195L413.116 211.79ZM413.116 187.599V172.077L396.606 154.579V171.149L413.116 187.599ZM413.116 163.408V147.886L396.606 128.574V145.144L413.116 163.408Z" fill="black" style="fill:black;fill-opacity:1;"/>
<path fill-rule="evenodd" clip-rule="evenodd" d="M420.129 334.477V124.905L389.337 89.3041V324.478C399.82 327.381 409.975 330.727 420.129 334.477ZM413.116 284.362V268.839L396.606 258.679V275.25L413.116 284.321V284.362ZM413.116 260.171V244.649L396.606 232.674V249.245L413.116 260.171ZM413.116 235.98V220.458L396.606 206.629V223.199L413.116 235.98ZM413.116 211.79V196.267L396.606 180.624V197.195L413.116 211.79ZM413.116 187.599V172.077L396.606 154.579V171.149L413.116 187.599ZM413.116 163.408V147.886L396.606 128.574V145.144L413.116 163.408Z" fill="black" style="fill:black;fill-opacity:1;"/>
<path fill-rule="evenodd" clip-rule="evenodd" d="M205.606 201.186C208.893 202.033 240.16 218.362 243.119 218.603V105.996L205.606 82.7324V201.146V201.186Z" fill="black" style="fill:black;fill-opacity:1;"/>
<path fill-rule="evenodd" clip-rule="evenodd" d="M205.606 201.186C208.893 202.033 240.16 218.362 243.119 218.603V105.996L205.606 82.7324V201.146V201.186Z" fill="black" style="fill:black;fill-opacity:1;"/>
<path fill-rule="evenodd" clip-rule="evenodd" d="M424.11 226.545V336.008C435.068 340.241 446.428 345.16 456.984 350.321V204.088L424.11 226.585V226.545Z" fill="black" style="fill:black;fill-opacity:1;"/>
<path fill-rule="evenodd" clip-rule="evenodd" d="M424.11 226.545V336.008C435.068 340.241 446.428 345.16 456.984 350.321V204.088L424.11 226.585V226.545Z" fill="black" style="fill:black;fill-opacity:1;"/>
<path fill-rule="evenodd" clip-rule="evenodd" d="M95.7002 194.654V361.086C102.823 357.054 110.055 353.264 117.433 349.676V169.939L95.7002 194.654ZM102.531 295.932L110.347 291.215V300.609L102.531 305.044V295.932ZM102.531 279.926L110.347 274.685V284.079L102.531 289.038V279.926ZM102.531 263.92L110.347 258.195V267.589L102.531 273.032V263.92ZM102.531 247.914L110.347 241.665V251.059L102.531 257.026V247.914ZM102.531 231.908L110.347 225.134V234.528L102.531 241.019V231.908ZM102.531 215.902L110.347 208.644V218.038L102.531 225.013V215.902Z" fill="black" style="fill:black;fill-opacity:1;"/>
<path fill-rule="evenodd" clip-rule="evenodd" d="M95.7002 194.654V361.086C102.823 357.054 110.055 353.264 117.433 349.676V169.939L95.7002 194.654ZM102.531 295.932L110.347 291.215V300.609L102.531 305.044V295.932ZM102.531 279.926L110.347 274.685V284.079L102.531 289.038V279.926ZM102.531 263.92L110.347 258.195V267.589L102.531 273.032V263.92ZM102.531 247.914L110.347 241.665V251.059L102.531 257.026V247.914ZM102.531 231.908L110.347 225.134V234.528L102.531 241.019V231.908ZM102.531 215.902L110.347 208.644V218.038L102.531 225.013V215.902Z" fill="black" style="fill:black;fill-opacity:1;"/>
<path fill-rule="evenodd" clip-rule="evenodd" d="M243.083 312.947V230.215L205.57 211.346V319.116C217.88 316.455 230.408 314.398 243.083 312.947Z" fill="black" style="fill:black;fill-opacity:1;"/>
<path fill-rule="evenodd" clip-rule="evenodd" d="M243.083 312.947V230.215L205.57 211.346V319.116C217.88 316.455 230.408 314.398 243.083 312.947Z" fill="black" style="fill:black;fill-opacity:1;"/>
<path fill-rule="evenodd" clip-rule="evenodd" d="M483.317 364.514L483.5 228.118L462.899 203.363V353.305C469.802 356.853 476.596 360.603 483.317 364.514ZM469.693 317.785L477.509 322.704V331.775L469.693 327.341V317.826V317.785ZM469.693 299.682L477.509 305.448V314.519L469.693 309.197V299.682ZM469.693 281.58L477.509 288.232V297.304L469.693 291.095V281.58ZM469.693 263.477L477.509 271.017V280.088L469.693 273.032V263.517V263.477ZM469.693 245.374L477.509 253.801V262.872L469.693 254.93V245.415V245.374ZM469.693 227.272L477.509 236.545V245.616L469.693 236.787V227.272Z" fill="black" style="fill:black;fill-opacity:1;"/>
<path fill-rule="evenodd" clip-rule="evenodd" d="M483.317 364.514L483.5 228.118L462.899 203.363V353.305C469.802 356.853 476.596 360.603 483.317 364.514ZM469.693 317.785L477.509 322.704V331.775L469.693 327.341V317.826V317.785ZM469.693 299.682L477.509 305.448V314.519L469.693 309.197V299.682ZM469.693 281.58L477.509 288.232V297.304L469.693 291.095V281.58ZM469.693 263.477L477.509 271.017V280.088L469.693 273.032V263.517V263.477ZM469.693 245.374L477.509 253.801V262.872L469.693 254.93V245.415V245.374ZM469.693 227.272L477.509 236.545V245.616L469.693 236.787V227.272Z" fill="black" style="fill:black;fill-opacity:1;"/>
<path fill-rule="evenodd" clip-rule="evenodd" d="M122.655 263.639L154.908 278.879V193.889L122.655 170.625V263.598V263.639ZM142.671 255.091L147.858 257.792V265.05L142.671 262.51V255.091ZM142.671 242.028L147.858 245.052V252.309L142.671 249.447V242.028ZM142.671 228.965L147.858 232.271V239.528L142.671 236.384V228.965ZM131.713 249.366L137.375 252.35V259.929L131.713 257.147V249.366ZM131.713 235.658L137.375 238.964V246.544L131.713 243.439V235.658ZM131.713 221.95L137.375 225.579V233.158L131.713 229.691V221.91V221.95ZM142.671 215.902L147.858 219.531V226.788L142.671 223.361V215.943V215.902ZM131.713 208.242L137.375 212.193V219.773L131.713 215.983V208.202V208.242Z" fill="black" style="fill:black;fill-opacity:1;"/>
<path fill-rule="evenodd" clip-rule="evenodd" d="M122.655 263.639L154.908 278.879V193.889L122.655 170.625V263.598V263.639ZM142.671 255.091L147.858 257.792V265.05L142.671 262.51V255.091ZM142.671 242.028L147.858 245.052V252.309L142.671 249.447V242.028ZM142.671 228.965L147.858 232.271V239.528L142.671 236.384V228.965ZM131.713 249.366L137.375 252.35V259.929L131.713 257.147V249.366ZM131.713 235.658L137.375 238.964V246.544L131.713 243.439V235.658ZM131.713 221.95L137.375 225.579V233.158L131.713 229.691V221.91V221.95ZM142.671 215.902L147.858 219.531V226.788L142.671 223.361V215.943V215.902ZM131.713 208.242L137.375 212.193V219.773L131.713 215.983V208.202V208.242Z" fill="black" style="fill:black;fill-opacity:1;"/>
<path fill-rule="evenodd" clip-rule="evenodd" d="M154.908 333.751V288.353L122.655 273.839V347.016C132.992 342.218 144.169 337.662 154.908 333.751Z" fill="black" style="fill:black;fill-opacity:1;"/>
<path fill-rule="evenodd" clip-rule="evenodd" d="M154.908 333.751V288.353L122.655 273.839V347.016C132.992 342.218 144.169 337.662 154.908 333.751Z" fill="black" style="fill:black;fill-opacity:1;"/>
<path fill-rule="evenodd" clip-rule="evenodd" d="M360.444 112.366V137.242H381.958V90.7552L360.444 112.366Z" fill="black" style="fill:black;fill-opacity:1;"/>
<path fill-rule="evenodd" clip-rule="evenodd" d="M360.444 112.366V137.242H381.958V90.7552L360.444 112.366Z" fill="black" style="fill:black;fill-opacity:1;"/>
<path d="M60.2342 104.261C67.2107 100.874 74.1873 98.2133 80.9812 96.278C71.8496 90.1497 60.2342 88.8596 49.7145 93.9799C38.0261 99.6647 30.7208 111.76 29.625 124.863C38.0261 117.122 48.4361 110.026 60.1976 104.301L60.2342 104.261Z" fill="black" style="fill:black;fill-opacity:1;"/>
<path d="M60.2342 104.261C67.2107 100.874 74.1873 98.2133 80.9812 96.278C71.8496 90.1497 60.2342 88.8596 49.7145 93.9799C38.0261 99.6647 30.7208 111.76 29.625 124.863C38.0261 117.122 48.4361 110.026 60.1976 104.301L60.2342 104.261Z" fill="black" style="fill:black;fill-opacity:1;"/>
<path d="M51.3196 84.667C62.0949 86.6829 72.3589 89.5455 81.8558 93.0934C75.281 77.813 62.3141 66.2015 46.0598 63.1776C28.0158 59.8312 10.6292 67.9754 0 82.7721C15.5968 80.8368 33.093 81.2803 51.3196 84.667Z" fill="black" style="fill:black;fill-opacity:1;"/>
<path d="M51.3196 84.667C62.0949 86.6829 72.3589 89.5455 81.8558 93.0934C75.281 77.813 62.3141 66.2015 46.0598 63.1776C28.0158 59.8312 10.6292 67.9754 0 82.7721C15.5968 80.8368 33.093 81.2803 51.3196 84.667Z" fill="black" style="fill:black;fill-opacity:1;"/>
<path d="M60.7802 60.7993C68.816 68.9838 76.0118 77.5311 82.2212 86.2398C84.2667 69.4676 79.153 51.9293 67.0262 39.6324C53.548 25.9647 34.956 22.2958 18.7383 28.3031C32.7644 36.0441 47.1924 47.0106 60.7802 60.7993Z" fill="black" style="fill:black;fill-opacity:1;"/>
<path d="M60.7802 60.7993C68.816 68.9838 76.0118 77.5311 82.2212 86.2398C84.2667 69.4676 79.153 51.9293 67.0262 39.6324C53.548 25.9647 34.956 22.2958 18.7383 28.3031C32.7644 36.0441 47.1924 47.0106 60.7802 60.7993Z" fill="black" style="fill:black;fill-opacity:1;"/>
<path d="M117.104 40.8823C124.701 32.1736 132.628 24.4729 140.663 17.8205C125.541 15.1595 109.506 20.4412 98.0736 33.5444C85.3624 48.0992 81.6367 68.5403 86.7139 86.5624C94.0557 71.2819 104.32 55.5983 117.104 40.9226V40.8823Z" fill="black" style="fill:black;fill-opacity:1;"/>
<path d="M117.104 40.8823C124.701 32.1736 132.628 24.4729 140.663 17.8205C125.541 15.1595 109.506 20.4412 98.0736 33.5444C85.3624 48.0992 81.6367 68.5403 86.7139 86.5624C94.0557 71.2819 104.32 55.5983 117.104 40.9226V40.8823Z" fill="black" style="fill:black;fill-opacity:1;"/>
<path d="M106.62 104.261C99.643 100.874 92.6665 98.2133 85.8726 96.278C95.0042 90.1497 106.62 88.8596 117.139 93.9799C128.828 99.6647 136.133 111.76 137.229 124.863C128.828 117.122 118.418 110.026 106.656 104.301L106.62 104.261Z" fill="black" style="fill:black;fill-opacity:1;"/>
<path d="M106.62 104.261C99.643 100.874 92.6665 98.2133 85.8726 96.278C95.0042 90.1497 106.62 88.8596 117.139 93.9799C128.828 99.6647 136.133 111.76 137.229 124.863C128.828 117.122 118.418 110.026 106.656 104.301L106.62 104.261Z" fill="black" style="fill:black;fill-opacity:1;"/>
<path d="M115.532 84.667C104.756 86.6829 94.4925 89.5455 84.9956 93.0934C91.5704 77.813 104.537 66.2015 120.792 63.1776C138.836 59.8312 156.222 67.9754 166.851 82.7721C151.255 80.8368 133.758 81.2803 115.532 84.667Z" fill="black" style="fill:black;fill-opacity:1;"/>
<path d="M115.532 84.667C104.756 86.6829 94.4925 89.5455 84.9956 93.0934C91.5704 77.813 104.537 66.2015 120.792 63.1776C138.836 59.8312 156.222 67.9754 166.851 82.7721C151.255 80.8368 133.758 81.2803 115.532 84.667Z" fill="black" style="fill:black;fill-opacity:1;"/>
<path d="M85.1441 104.181L83.9388 163.65C82.4777 238.803 84.6693 301.739 92.8877 377.173L78.8981 384.471C72.7982 302.061 70.2779 245.253 75.8299 163.247L79.8843 103.98L85.1076 104.181H85.1441Z" fill="black" style="fill:black;fill-opacity:1;"/>
<path d="M85.1441 104.181L83.9388 163.65C82.4777 238.803 84.6693 301.739 92.8877 377.173L78.8981 384.471C72.7982 302.061 70.2779 245.253 75.8299 163.247L79.8843 103.98L85.1076 104.181H85.1441Z" fill="black" style="fill:black;fill-opacity:1;"/>
<path d="M484.342 146.031C491.319 142.645 498.295 139.984 505.089 138.048C495.957 131.92 484.342 130.63 473.822 135.75C462.134 141.435 454.829 153.53 453.733 166.634C462.134 158.893 472.544 151.797 484.306 146.072L484.342 146.031Z" fill="black" style="fill:black;fill-opacity:1;"/>
<path d="M484.342 146.031C491.319 142.645 498.295 139.984 505.089 138.048C495.957 131.92 484.342 130.63 473.822 135.75C462.134 141.435 454.829 153.53 453.733 166.634C462.134 158.893 472.544 151.797 484.306 146.072L484.342 146.031Z" fill="black" style="fill:black;fill-opacity:1;"/>
<path d="M475.43 126.437C486.205 128.452 496.469 131.315 505.966 134.863C499.391 119.583 486.424 107.971 470.17 104.947C452.126 101.601 434.74 109.745 424.11 124.542C439.707 122.606 457.203 123.05 475.43 126.437Z" fill="black" style="fill:black;fill-opacity:1;"/>
<path d="M475.43 126.437C486.205 128.452 496.469 131.315 505.966 134.863C499.391 119.583 486.424 107.971 470.17 104.947C452.126 101.601 434.74 109.745 424.11 124.542C439.707 122.606 457.203 123.05 475.43 126.437Z" fill="black" style="fill:black;fill-opacity:1;"/>
<path d="M484.927 102.609C492.963 110.793 500.159 119.341 506.368 128.049C508.414 111.277 503.3 93.7389 491.137 81.442C477.658 67.7742 459.066 64.1053 442.849 70.1127C456.875 77.8537 471.303 88.8201 484.891 102.609H484.927Z" fill="black" style="fill:black;fill-opacity:1;"/>
<path d="M484.927 102.609C492.963 110.793 500.159 119.341 506.368 128.049C508.414 111.277 503.3 93.7389 491.137 81.442C477.658 67.7742 459.066 64.1053 442.849 70.1127C456.875 77.8537 471.303 88.8201 484.891 102.609H484.927Z" fill="black" style="fill:black;fill-opacity:1;"/>
<path d="M541.214 82.6509C548.812 73.9423 556.738 66.2415 564.774 59.5891C549.652 56.9281 533.617 62.2098 522.184 75.3131C509.473 89.8678 505.747 110.309 510.824 128.331C518.166 113.051 528.43 97.3669 541.214 82.6912V82.6509Z" fill="black" style="fill:black;fill-opacity:1;"/>
<path d="M541.214 82.6509C548.812 73.9423 556.738 66.2415 564.774 59.5891C549.652 56.9281 533.617 62.2098 522.184 75.3131C509.473 89.8678 505.747 110.309 510.824 128.331C518.166 113.051 528.43 97.3669 541.214 82.6912V82.6509Z" fill="black" style="fill:black;fill-opacity:1;"/>
<path d="M530.768 146.031C523.791 142.645 516.815 139.984 510.021 138.048C519.153 131.92 530.768 130.63 541.288 135.75C552.976 141.435 560.281 153.53 561.377 166.634C552.976 158.893 542.566 151.797 530.805 146.072L530.768 146.031Z" fill="black" style="fill:black;fill-opacity:1;"/>
<path d="M530.768 146.031C523.791 142.645 516.815 139.984 510.021 138.048C519.153 131.92 530.768 130.63 541.288 135.75C552.976 141.435 560.281 153.53 561.377 166.634C552.976 158.893 542.566 151.797 530.805 146.072L530.768 146.031Z" fill="black" style="fill:black;fill-opacity:1;"/>
<path d="M539.68 126.437C528.905 128.452 518.641 131.315 509.144 134.863C515.719 119.583 528.686 107.971 544.94 104.947C562.984 101.601 580.371 109.745 591 124.542C575.403 122.606 557.907 123.05 539.68 126.437Z" fill="black" style="fill:black;fill-opacity:1;"/>
<path d="M539.68 126.437C528.905 128.452 518.641 131.315 509.144 134.863C515.719 119.583 528.686 107.971 544.94 104.947C562.984 101.601 580.371 109.745 591 124.542C575.403 122.606 557.907 123.05 539.68 126.437Z" fill="black" style="fill:black;fill-opacity:1;"/>
<path d="M509.255 145.991L508.049 205.46C506.734 273.92 506.625 328.954 514.149 397.736L497.749 389.39C492.818 322.866 495.484 271.017 499.977 205.017L504.031 145.749L509.255 145.951V145.991Z" fill="black" style="fill:black;fill-opacity:1;"/>
<path d="M509.255 145.991L508.049 205.46C506.734 273.92 506.625 328.954 514.149 397.736L497.749 389.39C492.818 322.866 495.484 271.017 499.977 205.017L504.031 145.749L509.255 145.951V145.991Z" fill="black" style="fill:black;fill-opacity:1;"/>
<path d="M172.842 455.792V451.801H135.476V389.308H128.244V455.792H172.806H172.842ZM203.013 456.962C208.054 456.962 212.583 455.913 216.455 453.857C220.327 451.801 223.358 448.858 225.55 445.068C227.742 441.318 228.801 436.883 228.801 431.682V389.107H225.148V431.682C225.148 435.15 224.564 438.133 223.395 440.754C222.19 443.415 220.656 445.632 218.647 447.447C216.674 449.261 214.519 450.591 212.108 451.559C209.698 452.486 207.323 452.97 204.949 452.97C201.077 452.97 197.607 452.164 194.685 450.511C191.763 448.858 189.498 446.479 187.818 443.294C186.175 440.149 185.371 436.238 185.371 431.682V389.107H178.139V431.682C178.139 439.665 180.367 445.874 184.896 450.269C189.425 454.704 195.416 456.962 203.013 456.962ZM262.369 427.046L260.396 424.022L235.704 455.792H240.051L262.369 427.046ZM267.081 415.394L269.126 418.378L291.736 389.308H287.389L267.081 415.394ZM293.489 455.792L245.895 389.308H237.494L285.088 455.792H293.489ZM323.66 456.962C328.701 456.962 333.23 455.913 337.102 453.857C340.974 451.801 344.005 448.858 346.197 445.068C348.388 441.318 349.448 436.883 349.448 431.682V389.107H345.795V431.682C345.795 435.15 345.211 438.133 344.042 440.754C342.836 443.415 341.302 445.632 339.293 447.447C337.321 449.261 335.166 450.591 332.755 451.559C330.344 452.486 327.97 452.97 325.596 452.97C321.724 452.97 318.254 452.164 315.332 450.511C312.41 448.858 310.145 446.479 308.465 443.294C306.821 440.149 306.018 436.238 306.018 431.682V389.107H298.786V431.682C298.786 439.665 301.014 445.874 305.543 450.269C310.072 454.704 316.063 456.962 323.66 456.962ZM356.863 389.308L359.785 393.3H380.13C383.673 393.3 386.705 394.509 389.152 397.009C391.599 399.469 392.805 402.734 392.805 406.927C392.805 411.08 391.599 414.426 389.152 416.886C386.705 419.345 383.673 420.555 380.13 420.555H375.089L395.106 455.792H403.288L385.572 423.941C390.029 422.933 393.645 420.918 396.457 417.894C399.27 414.91 400.658 411.201 400.658 406.887C400.658 403.42 399.745 400.356 397.882 397.735C396.019 395.074 393.572 393.018 390.43 391.526C387.289 390.074 383.892 389.308 380.13 389.308H356.863ZM438.755 420.837L440.837 424.425L463.666 389.308H459.356L438.755 420.837ZM439.12 427.046L437.002 423.417L414.392 389.308H405.845L431.924 429.828V455.792H439.157V427.046H439.12Z" fill="black" style="fill:black;fill-opacity:1;"/>
<path d="M172.842 455.792V451.801H135.476V389.308H128.244V455.792H172.806H172.842ZM203.013 456.962C208.054 456.962 212.583 455.913 216.455 453.857C220.327 451.801 223.358 448.858 225.55 445.068C227.742 441.318 228.801 436.883 228.801 431.682V389.107H225.148V431.682C225.148 435.15 224.564 438.133 223.395 440.754C222.19 443.415 220.656 445.632 218.647 447.447C216.674 449.261 214.519 450.591 212.108 451.559C209.698 452.486 207.323 452.97 204.949 452.97C201.077 452.97 197.607 452.164 194.685 450.511C191.763 448.858 189.498 446.479 187.818 443.294C186.175 440.149 185.371 436.238 185.371 431.682V389.107H178.139V431.682C178.139 439.665 180.367 445.874 184.896 450.269C189.425 454.704 195.416 456.962 203.013 456.962ZM262.369 427.046L260.396 424.022L235.704 455.792H240.051L262.369 427.046ZM267.081 415.394L269.126 418.378L291.736 389.308H287.389L267.081 415.394ZM293.489 455.792L245.895 389.308H237.494L285.088 455.792H293.489ZM323.66 456.962C328.701 456.962 333.23 455.913 337.102 453.857C340.974 451.801 344.005 448.858 346.197 445.068C348.388 441.318 349.448 436.883 349.448 431.682V389.107H345.795V431.682C345.795 435.15 345.211 438.133 344.042 440.754C342.836 443.415 341.302 445.632 339.293 447.447C337.321 449.261 335.166 450.591 332.755 451.559C330.344 452.486 327.97 452.97 325.596 452.97C321.724 452.97 318.254 452.164 315.332 450.511C312.41 448.858 310.145 446.479 308.465 443.294C306.821 440.149 306.018 436.238 306.018 431.682V389.107H298.786V431.682C298.786 439.665 301.014 445.874 305.543 450.269C310.072 454.704 316.063 456.962 323.66 456.962ZM356.863 389.308L359.785 393.3H380.13C383.673 393.3 386.705 394.509 389.152 397.009C391.599 399.469 392.805 402.734 392.805 406.927C392.805 411.08 391.599 414.426 389.152 416.886C386.705 419.345 383.673 420.555 380.13 420.555H375.089L395.106 455.792H403.288L385.572 423.941C390.029 422.933 393.645 420.918 396.457 417.894C399.27 414.91 400.658 411.201 400.658 406.887C400.658 403.42 399.745 400.356 397.882 397.735C396.019 395.074 393.572 393.018 390.43 391.526C387.289 390.074 383.892 389.308 380.13 389.308H356.863ZM438.755 420.837L440.837 424.425L463.666 389.308H459.356L438.755 420.837ZM439.12 427.046L437.002 423.417L414.392 389.308H405.845L431.924 429.828V455.792H439.157V427.046H439.12Z" fill="black" style="fill:black;fill-opacity:1;"/>
<path d="M105.998 543.323H61.7275V477.323H104.792V481.274H68.8867V508.327H101.176V512.278H68.8867V539.372H105.998V543.323Z" fill="black" style="fill:black;fill-opacity:1;"/>
<path d="M105.998 543.323H61.7275V477.323H104.792V481.274H68.8867V508.327H101.176V512.278H68.8867V539.372H105.998V543.323Z" fill="black" style="fill:black;fill-opacity:1;"/>
<path d="M2.19141 539.372V543.323H31.9605C35.7227 543.323 39.1562 542.517 42.2609 540.823C45.3657 539.13 47.8495 536.872 49.7123 534.01C51.5386 531.187 52.4518 527.922 52.4518 524.333C52.4518 520.302 51.2829 516.754 49.0183 513.689C46.7537 510.625 43.7585 508.327 40.0328 506.876C42.6992 505.545 44.8178 503.731 46.4614 501.473C48.0321 499.175 48.8357 496.514 48.8357 493.289C48.8357 489.862 47.9225 486.959 46.0962 484.58C44.2699 482.201 41.7861 480.387 38.6448 479.137C35.54 477.928 32.1431 477.282 28.4174 477.282H2.19141V481.234H2.44709L9.35059 488.692V481.234H28.4174C30.7916 481.234 32.9101 481.637 34.846 482.524C36.7454 483.411 38.2795 484.701 39.3753 486.515C40.5076 488.289 41.019 490.587 41.019 493.329C41.019 496.071 40.5076 498.328 39.3753 500.143C38.2795 501.957 36.7454 503.207 34.846 504.094C32.9101 504.981 30.7916 505.384 28.4174 505.384H9.35059V494.78L2.19141 486.999V505.384V509.335V539.372ZM9.35059 509.335H31.9239C35.5035 509.335 38.4987 510.666 40.946 513.407C43.3932 516.149 44.5986 519.737 44.5986 524.374C44.5986 528.97 43.3932 532.598 40.946 535.34C38.4987 538.082 35.5035 539.412 31.9239 539.412H9.35059V509.375V509.335ZM135.44 544.533C140.407 544.533 144.791 543.605 148.516 541.67C152.279 539.815 155.201 537.356 157.392 534.332C159.511 531.349 160.57 528.083 160.57 524.616C160.57 519.294 158.415 515.06 154.032 511.915C151.073 509.779 146.434 507.48 140.042 505.223C137.047 504.094 134.234 502.965 131.678 501.715C129.048 500.505 126.856 498.973 125.212 497.199C123.569 495.385 122.729 493.127 122.729 490.305C122.729 487.402 124.153 484.903 126.966 482.846C129.742 480.83 133.504 479.822 138.252 479.822C140.846 479.822 143.22 480.226 145.302 481.032C147.384 481.919 149.174 482.846 150.635 483.895C152.059 484.943 153.192 485.87 153.959 486.757L155.128 488.007L157.831 485.306C156.808 484.096 155.383 482.685 153.484 481.234C151.585 479.782 149.32 478.532 146.69 477.444C144.06 476.395 141.211 475.871 138.106 475.871C131.422 475.871 125.98 477.524 121.706 480.709C117.432 483.975 115.314 488.168 115.314 493.248C115.314 498.53 117.542 502.804 121.925 505.989C124.92 508.206 129.632 510.464 136.024 512.802C139.019 513.931 141.832 515.02 144.425 516.229C147.019 517.439 149.101 518.971 150.744 520.705C152.388 522.438 153.192 524.696 153.192 527.357C153.192 529.736 152.571 531.913 151.256 533.889C149.941 535.945 148.041 537.517 145.448 538.727C142.855 539.936 139.604 540.581 135.732 540.581C127.404 540.501 121.085 537.638 116.738 532.074L114.108 534.735C115.241 536.187 116.738 537.638 118.638 539.09C120.464 540.581 122.802 541.912 125.614 542.92C128.39 543.968 131.678 544.492 135.513 544.492L135.44 544.533ZM193.48 543.363V481.274H214.994V477.323H164.771V481.274H186.285V543.363H193.48Z" fill="black" style="fill:black;fill-opacity:1;"/>
<path d="M2.19141 539.372V543.323H31.9605C35.7227 543.323 39.1562 542.517 42.2609 540.823C45.3657 539.13 47.8495 536.872 49.7123 534.01C51.5386 531.187 52.4518 527.922 52.4518 524.333C52.4518 520.302 51.2829 516.754 49.0183 513.689C46.7537 510.625 43.7585 508.327 40.0328 506.876C42.6992 505.545 44.8178 503.731 46.4614 501.473C48.0321 499.175 48.8357 496.514 48.8357 493.289C48.8357 489.862 47.9225 486.959 46.0962 484.58C44.2699 482.201 41.7861 480.387 38.6448 479.137C35.54 477.928 32.1431 477.282 28.4174 477.282H2.19141V481.234H2.44709L9.35059 488.692V481.234H28.4174C30.7916 481.234 32.9101 481.637 34.846 482.524C36.7454 483.411 38.2795 484.701 39.3753 486.515C40.5076 488.289 41.019 490.587 41.019 493.329C41.019 496.071 40.5076 498.328 39.3753 500.143C38.2795 501.957 36.7454 503.207 34.846 504.094C32.9101 504.981 30.7916 505.384 28.4174 505.384H9.35059V494.78L2.19141 486.999V505.384V509.335V539.372ZM9.35059 509.335H31.9239C35.5035 509.335 38.4987 510.666 40.946 513.407C43.3932 516.149 44.5986 519.737 44.5986 524.374C44.5986 528.97 43.3932 532.598 40.946 535.34C38.4987 538.082 35.5035 539.412 31.9239 539.412H9.35059V509.375V509.335ZM135.44 544.533C140.407 544.533 144.791 543.605 148.516 541.67C152.279 539.815 155.201 537.356 157.392 534.332C159.511 531.349 160.57 528.083 160.57 524.616C160.57 519.294 158.415 515.06 154.032 511.915C151.073 509.779 146.434 507.48 140.042 505.223C137.047 504.094 134.234 502.965 131.678 501.715C129.048 500.505 126.856 498.973 125.212 497.199C123.569 495.385 122.729 493.127 122.729 490.305C122.729 487.402 124.153 484.903 126.966 482.846C129.742 480.83 133.504 479.822 138.252 479.822C140.846 479.822 143.22 480.226 145.302 481.032C147.384 481.919 149.174 482.846 150.635 483.895C152.059 484.943 153.192 485.87 153.959 486.757L155.128 488.007L157.831 485.306C156.808 484.096 155.383 482.685 153.484 481.234C151.585 479.782 149.32 478.532 146.69 477.444C144.06 476.395 141.211 475.871 138.106 475.871C131.422 475.871 125.98 477.524 121.706 480.709C117.432 483.975 115.314 488.168 115.314 493.248C115.314 498.53 117.542 502.804 121.925 505.989C124.92 508.206 129.632 510.464 136.024 512.802C139.019 513.931 141.832 515.02 144.425 516.229C147.019 517.439 149.101 518.971 150.744 520.705C152.388 522.438 153.192 524.696 153.192 527.357C153.192 529.736 152.571 531.913 151.256 533.889C149.941 535.945 148.041 537.517 145.448 538.727C142.855 539.936 139.604 540.581 135.732 540.581C127.404 540.501 121.085 537.638 116.738 532.074L114.108 534.735C115.241 536.187 116.738 537.638 118.638 539.09C120.464 540.581 122.802 541.912 125.614 542.92C128.39 543.968 131.678 544.492 135.513 544.492L135.44 544.533ZM193.48 543.363V481.274H214.994V477.323H164.771V481.274H186.285V543.363H193.48Z" fill="black" style="fill:black;fill-opacity:1;"/>
<path d="M266.206 544.653C270.078 544.653 273.73 543.887 277.2 542.274C280.634 540.742 283.775 538.605 286.551 535.823L282.898 531.792C278.661 537.718 273.073 540.621 266.206 540.621C261.676 540.621 257.732 539.291 254.262 536.63C250.828 533.969 248.162 530.421 246.262 525.784C244.29 521.148 243.34 515.947 243.34 510.06C243.34 504.134 244.29 498.933 246.262 494.296C248.235 489.7 250.901 486.112 254.335 483.451C257.805 480.79 261.713 479.459 266.242 479.459C273.036 479.459 278.625 482.362 282.935 488.289L286.588 484.257C283.848 481.475 280.707 479.338 277.237 477.766C273.767 476.234 270.114 475.468 266.242 475.468C260.727 475.468 255.613 477 251.011 480.104C246.335 483.209 242.61 487.442 239.797 492.643C236.985 497.884 235.56 503.65 235.56 510.06C235.56 516.39 236.985 522.196 239.797 527.397C242.61 532.638 246.335 536.791 251.011 539.895C255.613 543 260.727 544.613 266.242 544.613L266.206 544.653ZM319.68 540.702C315.48 540.541 311.718 539.25 308.467 536.71C305.033 534.049 302.367 530.461 300.468 525.784C298.495 521.148 297.545 515.947 297.545 510.06C297.545 504.214 298.495 498.973 300.468 494.336C302.44 489.7 305.106 486.071 308.54 483.41C312.01 480.749 315.918 479.499 320.448 479.499C327.314 479.661 332.903 482.604 337.067 488.289C341.268 493.974 343.35 501.271 343.35 510.06C343.35 515.906 342.4 521.148 340.501 525.784C338.565 530.421 335.935 534.049 332.465 536.71C329.762 538.767 326.73 540.057 323.37 540.541V544.451C327.789 544.048 331.917 542.516 335.825 539.936C340.464 536.831 344.226 532.679 347.039 527.437C349.851 522.196 351.239 516.471 351.239 510.101C351.239 503.73 349.851 497.925 347.039 492.683C344.226 487.442 340.464 483.249 335.825 480.145C331.15 477.04 326.036 475.508 320.484 475.508C314.969 475.508 309.855 477.04 305.253 480.145C300.577 483.249 296.851 487.482 294.039 492.683C291.226 497.925 289.802 503.69 289.802 510.101C289.802 516.471 291.226 522.236 294.039 527.437C296.851 532.679 300.577 536.831 305.253 539.936C309.672 542.919 314.494 544.451 319.754 544.653V540.702H319.68ZM424.767 539.492C421.224 539.613 418.777 540.944 417.535 543.484H437.405C442.957 543.484 448.071 542.032 452.746 539.129C457.385 536.267 461.074 532.275 463.923 527.276C466.736 522.277 468.124 516.592 468.124 510.222C468.124 503.851 466.736 498.126 463.923 493.167C461.111 488.168 457.385 484.217 452.746 481.354C448.071 478.491 442.957 477 437.405 477H417.535V525.946H424.767V480.991H437.405C444.163 480.991 449.678 483.692 453.915 489.014C458.152 494.377 460.271 501.432 460.271 510.262C460.271 519.051 458.189 526.107 454.061 531.388C449.861 536.71 444.309 539.412 437.369 539.533H424.73L424.767 539.492ZM506.038 540.702C501.838 540.541 498.076 539.25 494.825 536.71C491.391 534.049 488.725 530.461 486.825 525.784C484.853 521.148 483.903 515.947 483.903 510.06C483.903 504.214 484.853 498.973 486.825 494.336C488.798 489.7 491.464 486.071 494.898 483.41C498.368 480.749 502.276 479.499 506.805 479.499C513.672 479.661 519.261 482.604 523.425 488.289C527.626 493.974 529.708 501.271 529.708 510.06C529.708 515.906 528.758 521.148 526.858 525.784C524.923 530.421 522.293 534.049 518.823 536.71C516.12 538.767 513.088 540.057 509.728 540.541V544.451C514.147 544.048 518.275 542.516 522.183 539.936C526.822 536.831 530.584 532.679 533.397 527.437C536.209 522.196 537.597 516.471 537.597 510.101C537.597 503.73 536.209 497.925 533.397 492.683C530.584 487.442 526.822 483.249 522.183 480.145C517.508 477.04 512.394 475.508 506.842 475.508C501.326 475.508 496.213 477.04 491.61 480.145C486.935 483.249 483.209 487.482 480.397 492.683C477.584 497.925 476.16 503.69 476.16 510.101C476.16 516.471 477.584 522.236 480.397 527.437C483.209 532.679 486.935 536.831 491.61 539.936C496.03 542.919 500.852 544.451 506.111 544.653V540.702H506.038ZM564.408 544.653C569.412 544.653 573.831 543.726 577.594 541.79C581.356 539.895 584.351 537.436 586.506 534.412C588.625 531.429 589.684 528.123 589.684 524.615C589.684 519.253 587.492 514.979 583.109 511.834C580.151 509.657 575.475 507.359 569.01 505.101C565.978 503.972 563.166 502.803 560.572 501.594C557.906 500.384 555.714 498.852 554.071 497.038C552.427 495.223 551.55 492.925 551.55 490.103C551.55 487.2 553.011 484.66 555.824 482.604C558.636 480.548 562.399 479.58 567.184 479.58C569.777 479.58 572.188 479.983 574.306 480.79C576.388 481.677 578.178 482.604 579.676 483.652C581.1 484.7 582.233 485.628 583.036 486.515L584.205 487.765L586.908 485.063C585.885 483.854 584.461 482.402 582.525 480.951C580.625 479.499 578.324 478.25 575.658 477.161C573.028 476.113 570.142 475.548 567.001 475.548C560.244 475.548 554.765 477.201 550.491 480.427C546.181 483.692 544.062 487.926 544.062 493.046C544.062 498.368 546.291 502.642 550.71 505.867C553.742 508.085 558.454 510.383 564.882 512.721C567.914 513.85 570.727 514.939 573.32 516.189C575.913 517.398 578.032 518.93 579.676 520.704C581.319 522.478 582.123 524.696 582.123 527.397C582.123 529.816 581.502 531.993 580.151 533.969C578.799 536.025 576.9 537.597 574.306 538.847C571.713 540.057 568.426 540.702 564.517 540.702C556.116 540.621 549.76 537.718 545.377 532.154L542.747 534.856C543.88 536.348 545.377 537.799 547.313 539.25C549.176 540.782 551.514 542.073 554.326 543.121C557.139 544.169 560.426 544.734 564.298 544.734L564.408 544.653Z" fill="black" style="fill:black;fill-opacity:1;"/>
<path d="M266.206 544.653C270.078 544.653 273.73 543.887 277.2 542.274C280.634 540.742 283.775 538.605 286.551 535.823L282.898 531.792C278.661 537.718 273.073 540.621 266.206 540.621C261.676 540.621 257.732 539.291 254.262 536.63C250.828 533.969 248.162 530.421 246.262 525.784C244.29 521.148 243.34 515.947 243.34 510.06C243.34 504.134 244.29 498.933 246.262 494.296C248.235 489.7 250.901 486.112 254.335 483.451C257.805 480.79 261.713 479.459 266.242 479.459C273.036 479.459 278.625 482.362 282.935 488.289L286.588 484.257C283.848 481.475 280.707 479.338 277.237 477.766C273.767 476.234 270.114 475.468 266.242 475.468C260.727 475.468 255.613 477 251.011 480.104C246.335 483.209 242.61 487.442 239.797 492.643C236.985 497.884 235.56 503.65 235.56 510.06C235.56 516.39 236.985 522.196 239.797 527.397C242.61 532.638 246.335 536.791 251.011 539.895C255.613 543 260.727 544.613 266.242 544.613L266.206 544.653ZM319.68 540.702C315.48 540.541 311.718 539.25 308.467 536.71C305.033 534.049 302.367 530.461 300.468 525.784C298.495 521.148 297.545 515.947 297.545 510.06C297.545 504.214 298.495 498.973 300.468 494.336C302.44 489.7 305.106 486.071 308.54 483.41C312.01 480.749 315.918 479.499 320.448 479.499C327.314 479.661 332.903 482.604 337.067 488.289C341.268 493.974 343.35 501.271 343.35 510.06C343.35 515.906 342.4 521.148 340.501 525.784C338.565 530.421 335.935 534.049 332.465 536.71C329.762 538.767 326.73 540.057 323.37 540.541V544.451C327.789 544.048 331.917 542.516 335.825 539.936C340.464 536.831 344.226 532.679 347.039 527.437C349.851 522.196 351.239 516.471 351.239 510.101C351.239 503.73 349.851 497.925 347.039 492.683C344.226 487.442 340.464 483.249 335.825 480.145C331.15 477.04 326.036 475.508 320.484 475.508C314.969 475.508 309.855 477.04 305.253 480.145C300.577 483.249 296.851 487.482 294.039 492.683C291.226 497.925 289.802 503.69 289.802 510.101C289.802 516.471 291.226 522.236 294.039 527.437C296.851 532.679 300.577 536.831 305.253 539.936C309.672 542.919 314.494 544.451 319.754 544.653V540.702H319.68ZM424.767 539.492C421.224 539.613 418.777 540.944 417.535 543.484H437.405C442.957 543.484 448.071 542.032 452.746 539.129C457.385 536.267 461.074 532.275 463.923 527.276C466.736 522.277 468.124 516.592 468.124 510.222C468.124 503.851 466.736 498.126 463.923 493.167C461.111 488.168 457.385 484.217 452.746 481.354C448.071 478.491 442.957 477 437.405 477H417.535V525.946H424.767V480.991H437.405C444.163 480.991 449.678 483.692 453.915 489.014C458.152 494.377 460.271 501.432 460.271 510.262C460.271 519.051 458.189 526.107 454.061 531.388C449.861 536.71 444.309 539.412 437.369 539.533H424.73L424.767 539.492ZM506.038 540.702C501.838 540.541 498.076 539.25 494.825 536.71C491.391 534.049 488.725 530.461 486.825 525.784C484.853 521.148 483.903 515.947 483.903 510.06C483.903 504.214 484.853 498.973 486.825 494.336C488.798 489.7 491.464 486.071 494.898 483.41C498.368 480.749 502.276 479.499 506.805 479.499C513.672 479.661 519.261 482.604 523.425 488.289C527.626 493.974 529.708 501.271 529.708 510.06C529.708 515.906 528.758 521.148 526.858 525.784C524.923 530.421 522.293 534.049 518.823 536.71C516.12 538.767 513.088 540.057 509.728 540.541V544.451C514.147 544.048 518.275 542.516 522.183 539.936C526.822 536.831 530.584 532.679 533.397 527.437C536.209 522.196 537.597 516.471 537.597 510.101C537.597 503.73 536.209 497.925 533.397 492.683C530.584 487.442 526.822 483.249 522.183 480.145C517.508 477.04 512.394 475.508 506.842 475.508C501.326 475.508 496.213 477.04 491.61 480.145C486.935 483.249 483.209 487.482 480.397 492.683C477.584 497.925 476.16 503.69 476.16 510.101C476.16 516.471 477.584 522.236 480.397 527.437C483.209 532.679 486.935 536.831 491.61 539.936C496.03 542.919 500.852 544.451 506.111 544.653V540.702H506.038ZM564.408 544.653C569.412 544.653 573.831 543.726 577.594 541.79C581.356 539.895 584.351 537.436 586.506 534.412C588.625 531.429 589.684 528.123 589.684 524.615C589.684 519.253 587.492 514.979 583.109 511.834C580.151 509.657 575.475 507.359 569.01 505.101C565.978 503.972 563.166 502.803 560.572 501.594C557.906 500.384 555.714 498.852 554.071 497.038C552.427 495.223 551.55 492.925 551.55 490.103C551.55 487.2 553.011 484.66 555.824 482.604C558.636 480.548 562.399 479.58 567.184 479.58C569.777 479.58 572.188 479.983 574.306 480.79C576.388 481.677 578.178 482.604 579.676 483.652C581.1 484.7 582.233 485.628 583.036 486.515L584.205 487.765L586.908 485.063C585.885 483.854 584.461 482.402 582.525 480.951C580.625 479.499 578.324 478.25 575.658 477.161C573.028 476.113 570.142 475.548 567.001 475.548C560.244 475.548 554.765 477.201 550.491 480.427C546.181 483.692 544.062 487.926 544.062 493.046C544.062 498.368 546.291 502.642 550.71 505.867C553.742 508.085 558.454 510.383 564.882 512.721C567.914 513.85 570.727 514.939 573.32 516.189C575.913 517.398 578.032 518.93 579.676 520.704C581.319 522.478 582.123 524.696 582.123 527.397C582.123 529.816 581.502 531.993 580.151 533.969C578.799 536.025 576.9 537.597 574.306 538.847C571.713 540.057 568.426 540.702 564.517 540.702C556.116 540.621 549.76 537.718 545.377 532.154L542.747 534.856C543.88 536.348 545.377 537.799 547.313 539.25C549.176 540.782 551.514 542.073 554.326 543.121C557.139 544.169 560.426 544.734 564.298 544.734L564.408 544.653Z" fill="black" style="fill:black;fill-opacity:1;"/>
<path d="M409.498 543.444H406.467L362.16 488.007V543.444H358.544V476.96H364.607L405.882 528.163V476.96H409.498V543.444Z" fill="black" style="fill:black;fill-opacity:1;"/>
<path d="M409.498 543.444H406.467L362.16 488.007V543.444H358.544V476.96H364.607L405.882 528.163V476.96H409.498V543.444Z" fill="black" style="fill:black;fill-opacity:1;"/>
<path fill-rule="evenodd" clip-rule="evenodd" d="M425.533 565.78C425.387 565.901 425.204 566.022 425.058 566.183C387.326 596.26 340.937 614 290.823 614C244.982 614 202.283 599.163 166.414 573.601C203.635 592.833 245.129 603.598 288.924 603.598C338.125 603.598 384.477 590.011 425.021 566.102C425.204 565.981 425.35 565.901 425.533 565.78Z" fill="black" style="fill:black;fill-opacity:1;"/>
<path fill-rule="evenodd" clip-rule="evenodd" d="M425.533 565.78C425.387 565.901 425.204 566.022 425.058 566.183C387.326 596.26 340.937 614 290.823 614C244.982 614 202.283 599.163 166.414 573.601C203.635 592.833 245.129 603.598 288.924 603.598C338.125 603.598 384.477 590.011 425.021 566.102C425.204 565.981 425.35 565.901 425.533 565.78Z" fill="black" style="fill:black;fill-opacity:1;"/>
</svg>
